<mxfile host="app.diagrams.net" agent="Mozilla/5.0 (Windows NT 10.0; Win64; x64) AppleWebKit/537.36 (KHTML, like Gecko) Chrome/135.0.0.0 Safari/537.36" version="26.0.11" pages="2">
  <diagram name="Login" id="JSuM1ET8Ek3WXpH_XxwL">
    <mxGraphModel dx="2768" dy="1965" grid="1" gridSize="10" guides="1" tooltips="1" connect="1" arrows="1" fold="1" page="1" pageScale="1" pageWidth="827" pageHeight="1169" math="0" shadow="0">
      <root>
        <mxCell id="0" />
        <mxCell id="1" parent="0" />
        <mxCell id="4r31cYOIHmRY1Hmb6KCA-3" style="edgeStyle=orthogonalEdgeStyle;rounded=0;orthogonalLoop=1;jettySize=auto;html=1;exitX=0.5;exitY=0.5;exitDx=0;exitDy=0;exitPerimeter=0;entryX=0;entryY=0.5;entryDx=0;entryDy=0;strokeColor=none;" edge="1" parent="1" source="4r31cYOIHmRY1Hmb6KCA-1" target="4r31cYOIHmRY1Hmb6KCA-2">
          <mxGeometry relative="1" as="geometry" />
        </mxCell>
        <mxCell id="4r31cYOIHmRY1Hmb6KCA-1" value="Utente registrato" style="shape=umlActor;verticalLabelPosition=bottom;verticalAlign=top;html=1;outlineConnect=0;" vertex="1" parent="1">
          <mxGeometry x="130" y="130" width="30" height="60" as="geometry" />
        </mxCell>
        <mxCell id="4r31cYOIHmRY1Hmb6KCA-18" style="edgeStyle=orthogonalEdgeStyle;rounded=0;orthogonalLoop=1;jettySize=auto;html=1;exitX=1;exitY=0.5;exitDx=0;exitDy=0;entryX=0;entryY=0.5;entryDx=0;entryDy=0;" edge="1" parent="1" source="4r31cYOIHmRY1Hmb6KCA-2" target="4r31cYOIHmRY1Hmb6KCA-6">
          <mxGeometry relative="1" as="geometry" />
        </mxCell>
        <mxCell id="4r31cYOIHmRY1Hmb6KCA-19" style="edgeStyle=orthogonalEdgeStyle;rounded=0;orthogonalLoop=1;jettySize=auto;html=1;exitX=1;exitY=0.5;exitDx=0;exitDy=0;entryX=0;entryY=0.5;entryDx=0;entryDy=0;" edge="1" parent="1" source="4r31cYOIHmRY1Hmb6KCA-2" target="4r31cYOIHmRY1Hmb6KCA-5">
          <mxGeometry relative="1" as="geometry" />
        </mxCell>
        <mxCell id="4r31cYOIHmRY1Hmb6KCA-2" value="Effettuare login" style="ellipse;whiteSpace=wrap;html=1;" vertex="1" parent="1">
          <mxGeometry x="240" y="120" width="120" height="80" as="geometry" />
        </mxCell>
        <mxCell id="4r31cYOIHmRY1Hmb6KCA-4" value="" style="endArrow=none;html=1;rounded=0;exitX=0.5;exitY=0.5;exitDx=0;exitDy=0;exitPerimeter=0;entryX=0;entryY=0.5;entryDx=0;entryDy=0;" edge="1" parent="1" source="4r31cYOIHmRY1Hmb6KCA-1" target="4r31cYOIHmRY1Hmb6KCA-2">
          <mxGeometry width="50" height="50" relative="1" as="geometry">
            <mxPoint x="160" y="240" as="sourcePoint" />
            <mxPoint x="240" y="240" as="targetPoint" />
          </mxGeometry>
        </mxCell>
        <mxCell id="4r31cYOIHmRY1Hmb6KCA-5" value="Inserire password" style="ellipse;whiteSpace=wrap;html=1;" vertex="1" parent="1">
          <mxGeometry x="520" y="200" width="120" height="80" as="geometry" />
        </mxCell>
        <mxCell id="4r31cYOIHmRY1Hmb6KCA-6" value="Inserire Email/Username" style="ellipse;whiteSpace=wrap;html=1;" vertex="1" parent="1">
          <mxGeometry x="520" y="40" width="120" height="80" as="geometry" />
        </mxCell>
        <mxCell id="4r31cYOIHmRY1Hmb6KCA-20" style="edgeStyle=orthogonalEdgeStyle;rounded=0;orthogonalLoop=1;jettySize=auto;html=1;exitX=0;exitY=0.5;exitDx=0;exitDy=0;entryX=1;entryY=0.5;entryDx=0;entryDy=0;" edge="1" parent="1" source="4r31cYOIHmRY1Hmb6KCA-7" target="4r31cYOIHmRY1Hmb6KCA-6">
          <mxGeometry relative="1" as="geometry" />
        </mxCell>
        <mxCell id="4r31cYOIHmRY1Hmb6KCA-21" style="edgeStyle=orthogonalEdgeStyle;rounded=0;orthogonalLoop=1;jettySize=auto;html=1;exitX=0;exitY=0.5;exitDx=0;exitDy=0;entryX=1;entryY=0.5;entryDx=0;entryDy=0;" edge="1" parent="1" source="4r31cYOIHmRY1Hmb6KCA-7" target="4r31cYOIHmRY1Hmb6KCA-5">
          <mxGeometry relative="1" as="geometry" />
        </mxCell>
        <mxCell id="4r31cYOIHmRY1Hmb6KCA-22" style="edgeStyle=orthogonalEdgeStyle;rounded=0;orthogonalLoop=1;jettySize=auto;html=1;entryX=0.5;entryY=1;entryDx=0;entryDy=0;" edge="1" parent="1" source="4r31cYOIHmRY1Hmb6KCA-7" target="4r31cYOIHmRY1Hmb6KCA-8">
          <mxGeometry relative="1" as="geometry" />
        </mxCell>
        <mxCell id="4r31cYOIHmRY1Hmb6KCA-37" value="&amp;lt;&amp;lt;Include&amp;gt;&amp;gt;" style="edgeLabel;html=1;align=center;verticalAlign=middle;resizable=0;points=[];" vertex="1" connectable="0" parent="4r31cYOIHmRY1Hmb6KCA-22">
          <mxGeometry x="0.0833" y="1" relative="1" as="geometry">
            <mxPoint y="-1" as="offset" />
          </mxGeometry>
        </mxCell>
        <mxCell id="4r31cYOIHmRY1Hmb6KCA-7" value="Effettuare registrazione" style="ellipse;whiteSpace=wrap;html=1;" vertex="1" parent="1">
          <mxGeometry x="800" y="120" width="120" height="80" as="geometry" />
        </mxCell>
        <mxCell id="4r31cYOIHmRY1Hmb6KCA-8" value="Mail di conferma" style="ellipse;whiteSpace=wrap;html=1;" vertex="1" parent="1">
          <mxGeometry x="800" y="-80" width="120" height="80" as="geometry" />
        </mxCell>
        <mxCell id="4r31cYOIHmRY1Hmb6KCA-23" value="Utente non autenticato" style="shape=umlActor;verticalLabelPosition=bottom;verticalAlign=top;html=1;outlineConnect=0;" vertex="1" parent="1">
          <mxGeometry x="1000" y="130" width="30" height="60" as="geometry" />
        </mxCell>
        <mxCell id="4r31cYOIHmRY1Hmb6KCA-39" style="edgeStyle=orthogonalEdgeStyle;rounded=0;orthogonalLoop=1;jettySize=auto;html=1;exitX=0.5;exitY=0.5;exitDx=0;exitDy=0;exitPerimeter=0;entryX=0.5;entryY=0.5;entryDx=0;entryDy=0;entryPerimeter=0;" edge="1" parent="1" source="4r31cYOIHmRY1Hmb6KCA-24" target="4r31cYOIHmRY1Hmb6KCA-1">
          <mxGeometry relative="1" as="geometry">
            <Array as="points">
              <mxPoint x="80" y="210" />
              <mxPoint x="80" y="160" />
            </Array>
          </mxGeometry>
        </mxCell>
        <mxCell id="4r31cYOIHmRY1Hmb6KCA-24" value="Utente privato" style="shape=umlActor;verticalLabelPosition=bottom;verticalAlign=top;html=1;outlineConnect=0;" vertex="1" parent="1">
          <mxGeometry x="10" y="180" width="30" height="60" as="geometry" />
        </mxCell>
        <mxCell id="4r31cYOIHmRY1Hmb6KCA-25" value="Ente pubblico" style="shape=umlActor;verticalLabelPosition=bottom;verticalAlign=top;html=1;outlineConnect=0;" vertex="1" parent="1">
          <mxGeometry x="10" y="60" width="30" height="60" as="geometry" />
        </mxCell>
        <mxCell id="4r31cYOIHmRY1Hmb6KCA-28" value="" style="endArrow=none;html=1;rounded=0;exitX=0.5;exitY=0.5;exitDx=0;exitDy=0;exitPerimeter=0;entryX=1;entryY=0.5;entryDx=0;entryDy=0;" edge="1" parent="1" source="4r31cYOIHmRY1Hmb6KCA-23" target="4r31cYOIHmRY1Hmb6KCA-7">
          <mxGeometry width="50" height="50" relative="1" as="geometry">
            <mxPoint x="560" y="110" as="sourcePoint" />
            <mxPoint x="610" y="60" as="targetPoint" />
          </mxGeometry>
        </mxCell>
        <mxCell id="4r31cYOIHmRY1Hmb6KCA-29" value="&amp;lt;&amp;lt;Include&amp;gt;&amp;gt;" style="text;html=1;align=center;verticalAlign=middle;whiteSpace=wrap;rounded=0;" vertex="1" parent="1">
          <mxGeometry x="440" y="50" width="60" height="30" as="geometry" />
        </mxCell>
        <mxCell id="4r31cYOIHmRY1Hmb6KCA-30" value="&amp;lt;&amp;lt;Include&amp;gt;&amp;gt;" style="text;html=1;align=center;verticalAlign=middle;whiteSpace=wrap;rounded=0;" vertex="1" parent="1">
          <mxGeometry x="440" y="240" width="60" height="30" as="geometry" />
        </mxCell>
        <mxCell id="4r31cYOIHmRY1Hmb6KCA-31" value="&amp;lt;&amp;lt;Include&amp;gt;&amp;gt;" style="text;html=1;align=center;verticalAlign=middle;whiteSpace=wrap;rounded=0;" vertex="1" parent="1">
          <mxGeometry x="660" y="240" width="60" height="30" as="geometry" />
        </mxCell>
        <mxCell id="4r31cYOIHmRY1Hmb6KCA-32" value="&lt;span style=&quot;color: rgb(0, 0, 0); font-family: Helvetica; font-size: 12px; font-style: normal; font-variant-ligatures: normal; font-variant-caps: normal; font-weight: 400; letter-spacing: normal; orphans: 2; text-align: center; text-indent: 0px; text-transform: none; widows: 2; word-spacing: 0px; -webkit-text-stroke-width: 0px; white-space: normal; background-color: rgb(251, 251, 251); text-decoration-thickness: initial; text-decoration-style: initial; text-decoration-color: initial; display: inline !important; float: none;&quot;&gt;&amp;lt;&amp;lt;Include&amp;gt;&amp;gt;&lt;/span&gt;" style="text;whiteSpace=wrap;html=1;" vertex="1" parent="1">
          <mxGeometry x="655" y="50" width="70" height="30" as="geometry" />
        </mxCell>
        <mxCell id="4r31cYOIHmRY1Hmb6KCA-33" value="Mail serivce" style="shape=umlActor;verticalLabelPosition=bottom;verticalAlign=top;html=1;outlineConnect=0;" vertex="1" parent="1">
          <mxGeometry x="845" y="-230" width="30" height="60" as="geometry" />
        </mxCell>
        <mxCell id="4r31cYOIHmRY1Hmb6KCA-36" value="" style="endArrow=none;html=1;rounded=0;entryX=0.5;entryY=0;entryDx=0;entryDy=0;" edge="1" parent="1" target="4r31cYOIHmRY1Hmb6KCA-8">
          <mxGeometry width="50" height="50" relative="1" as="geometry">
            <mxPoint x="860" y="-150" as="sourcePoint" />
            <mxPoint x="610" y="-130" as="targetPoint" />
          </mxGeometry>
        </mxCell>
        <mxCell id="4r31cYOIHmRY1Hmb6KCA-42" style="edgeStyle=orthogonalEdgeStyle;rounded=0;orthogonalLoop=1;jettySize=auto;html=1;exitX=0.5;exitY=0.5;exitDx=0;exitDy=0;exitPerimeter=0;entryX=0.5;entryY=0.5;entryDx=0;entryDy=0;entryPerimeter=0;" edge="1" parent="1" source="4r31cYOIHmRY1Hmb6KCA-25" target="4r31cYOIHmRY1Hmb6KCA-1">
          <mxGeometry relative="1" as="geometry">
            <Array as="points">
              <mxPoint x="80" y="90" />
              <mxPoint x="80" y="160" />
            </Array>
          </mxGeometry>
        </mxCell>
      </root>
    </mxGraphModel>
  </diagram>
  <diagram name="Creazione Evento" id="FwtpVY4_N56NTjMl06vu">
    <mxGraphModel dx="2526" dy="1865" grid="1" gridSize="10" guides="1" tooltips="1" connect="1" arrows="1" fold="1" page="1" pageScale="1" pageWidth="827" pageHeight="1169" math="0" shadow="0">
      <root>
        <mxCell id="hnphaV9fLyNqbtY4DGl_-0" />
        <mxCell id="hnphaV9fLyNqbtY4DGl_-1" parent="hnphaV9fLyNqbtY4DGl_-0" />
        <mxCell id="hnphaV9fLyNqbtY4DGl_-2" style="edgeStyle=orthogonalEdgeStyle;rounded=0;orthogonalLoop=1;jettySize=auto;html=1;exitX=0.5;exitY=0.5;exitDx=0;exitDy=0;exitPerimeter=0;entryX=0;entryY=0.5;entryDx=0;entryDy=0;strokeColor=none;" edge="1" parent="hnphaV9fLyNqbtY4DGl_-1" source="hnphaV9fLyNqbtY4DGl_-3" target="hnphaV9fLyNqbtY4DGl_-6">
          <mxGeometry relative="1" as="geometry" />
        </mxCell>
        <mxCell id="hnphaV9fLyNqbtY4DGl_-3" value="Utente registrato" style="shape=umlActor;verticalLabelPosition=bottom;verticalAlign=top;html=1;outlineConnect=0;" vertex="1" parent="hnphaV9fLyNqbtY4DGl_-1">
          <mxGeometry x="130" y="130" width="30" height="60" as="geometry" />
        </mxCell>
        <mxCell id="hnphaV9fLyNqbtY4DGl_-4" style="edgeStyle=orthogonalEdgeStyle;rounded=0;orthogonalLoop=1;jettySize=auto;html=1;exitX=1;exitY=0.5;exitDx=0;exitDy=0;entryX=0;entryY=0.5;entryDx=0;entryDy=0;" edge="1" parent="hnphaV9fLyNqbtY4DGl_-1" source="hnphaV9fLyNqbtY4DGl_-6" target="hnphaV9fLyNqbtY4DGl_-9">
          <mxGeometry relative="1" as="geometry" />
        </mxCell>
        <mxCell id="hnphaV9fLyNqbtY4DGl_-5" style="edgeStyle=orthogonalEdgeStyle;rounded=0;orthogonalLoop=1;jettySize=auto;html=1;exitX=1;exitY=0.5;exitDx=0;exitDy=0;entryX=0;entryY=0.5;entryDx=0;entryDy=0;" edge="1" parent="hnphaV9fLyNqbtY4DGl_-1" source="hnphaV9fLyNqbtY4DGl_-6" target="hnphaV9fLyNqbtY4DGl_-8">
          <mxGeometry relative="1" as="geometry" />
        </mxCell>
        <mxCell id="MBtz7CTxWzo5z4R5YLK3-7" value="&amp;lt;&amp;lt;Include&amp;gt;&amp;gt;" style="edgeLabel;html=1;align=center;verticalAlign=middle;resizable=0;points=[];" vertex="1" connectable="0" parent="hnphaV9fLyNqbtY4DGl_-5">
          <mxGeometry x="0.225" y="-4" relative="1" as="geometry">
            <mxPoint x="12" y="-4" as="offset" />
          </mxGeometry>
        </mxCell>
        <mxCell id="TaVWSZ8UGfgvqQQc6h5i-1" style="edgeStyle=orthogonalEdgeStyle;rounded=0;orthogonalLoop=1;jettySize=auto;html=1;exitX=1;exitY=0.5;exitDx=0;exitDy=0;entryX=0;entryY=0.5;entryDx=0;entryDy=0;" edge="1" parent="hnphaV9fLyNqbtY4DGl_-1" source="hnphaV9fLyNqbtY4DGl_-6" target="TaVWSZ8UGfgvqQQc6h5i-0">
          <mxGeometry relative="1" as="geometry" />
        </mxCell>
        <mxCell id="MBtz7CTxWzo5z4R5YLK3-2" style="edgeStyle=orthogonalEdgeStyle;rounded=0;orthogonalLoop=1;jettySize=auto;html=1;entryX=0;entryY=0.5;entryDx=0;entryDy=0;" edge="1" parent="hnphaV9fLyNqbtY4DGl_-1" source="hnphaV9fLyNqbtY4DGl_-6" target="MBtz7CTxWzo5z4R5YLK3-0">
          <mxGeometry relative="1" as="geometry" />
        </mxCell>
        <mxCell id="MBtz7CTxWzo5z4R5YLK3-6" value="&amp;lt;&amp;lt;Extend&amp;gt;&amp;gt;" style="edgeLabel;html=1;align=center;verticalAlign=middle;resizable=0;points=[];" vertex="1" connectable="0" parent="MBtz7CTxWzo5z4R5YLK3-2">
          <mxGeometry x="0.7625" y="2" relative="1" as="geometry">
            <mxPoint x="-12" y="2" as="offset" />
          </mxGeometry>
        </mxCell>
        <mxCell id="MBtz7CTxWzo5z4R5YLK3-3" style="edgeStyle=orthogonalEdgeStyle;rounded=0;orthogonalLoop=1;jettySize=auto;html=1;entryX=0;entryY=0.5;entryDx=0;entryDy=0;" edge="1" parent="hnphaV9fLyNqbtY4DGl_-1" source="hnphaV9fLyNqbtY4DGl_-6" target="MBtz7CTxWzo5z4R5YLK3-1">
          <mxGeometry relative="1" as="geometry" />
        </mxCell>
        <mxCell id="MBtz7CTxWzo5z4R5YLK3-4" value="&amp;lt;&amp;lt;Extend&amp;gt;&amp;gt;" style="edgeLabel;html=1;align=center;verticalAlign=middle;resizable=0;points=[];" vertex="1" connectable="0" parent="MBtz7CTxWzo5z4R5YLK3-3">
          <mxGeometry x="0.8292" y="-2" relative="1" as="geometry">
            <mxPoint x="-9" y="-2" as="offset" />
          </mxGeometry>
        </mxCell>
        <mxCell id="hnphaV9fLyNqbtY4DGl_-6" value="Crea segnalazione" style="ellipse;whiteSpace=wrap;html=1;" vertex="1" parent="hnphaV9fLyNqbtY4DGl_-1">
          <mxGeometry x="240" y="120" width="120" height="80" as="geometry" />
        </mxCell>
        <mxCell id="hnphaV9fLyNqbtY4DGl_-7" value="" style="endArrow=none;html=1;rounded=0;exitX=0.5;exitY=0.5;exitDx=0;exitDy=0;exitPerimeter=0;entryX=0;entryY=0.5;entryDx=0;entryDy=0;" edge="1" parent="hnphaV9fLyNqbtY4DGl_-1" source="hnphaV9fLyNqbtY4DGl_-3" target="hnphaV9fLyNqbtY4DGl_-6">
          <mxGeometry width="50" height="50" relative="1" as="geometry">
            <mxPoint x="160" y="240" as="sourcePoint" />
            <mxPoint x="240" y="240" as="targetPoint" />
          </mxGeometry>
        </mxCell>
        <mxCell id="hnphaV9fLyNqbtY4DGl_-8" value="Inserire categoria" style="ellipse;whiteSpace=wrap;html=1;" vertex="1" parent="hnphaV9fLyNqbtY4DGl_-1">
          <mxGeometry x="520" y="120" width="120" height="80" as="geometry" />
        </mxCell>
        <mxCell id="hnphaV9fLyNqbtY4DGl_-9" value="Inserire titolo" style="ellipse;whiteSpace=wrap;html=1;" vertex="1" parent="hnphaV9fLyNqbtY4DGl_-1">
          <mxGeometry x="520" y="-200" width="120" height="80" as="geometry" />
        </mxCell>
        <mxCell id="hnphaV9fLyNqbtY4DGl_-14" value="Modifica segnalazione" style="ellipse;whiteSpace=wrap;html=1;" vertex="1" parent="hnphaV9fLyNqbtY4DGl_-1">
          <mxGeometry x="800" y="120" width="120" height="80" as="geometry" />
        </mxCell>
        <mxCell id="hnphaV9fLyNqbtY4DGl_-17" style="edgeStyle=orthogonalEdgeStyle;rounded=0;orthogonalLoop=1;jettySize=auto;html=1;exitX=0.5;exitY=0.5;exitDx=0;exitDy=0;exitPerimeter=0;entryX=0.5;entryY=0.5;entryDx=0;entryDy=0;entryPerimeter=0;" edge="1" parent="hnphaV9fLyNqbtY4DGl_-1" source="hnphaV9fLyNqbtY4DGl_-18" target="hnphaV9fLyNqbtY4DGl_-3">
          <mxGeometry relative="1" as="geometry">
            <Array as="points">
              <mxPoint x="80" y="210" />
              <mxPoint x="80" y="160" />
            </Array>
          </mxGeometry>
        </mxCell>
        <mxCell id="hnphaV9fLyNqbtY4DGl_-18" value="Utente privato" style="shape=umlActor;verticalLabelPosition=bottom;verticalAlign=top;html=1;outlineConnect=0;" vertex="1" parent="hnphaV9fLyNqbtY4DGl_-1">
          <mxGeometry x="10" y="180" width="30" height="60" as="geometry" />
        </mxCell>
        <mxCell id="hnphaV9fLyNqbtY4DGl_-19" value="Ente pubblico" style="shape=umlActor;verticalLabelPosition=bottom;verticalAlign=top;html=1;outlineConnect=0;" vertex="1" parent="hnphaV9fLyNqbtY4DGl_-1">
          <mxGeometry x="10" y="60" width="30" height="60" as="geometry" />
        </mxCell>
        <mxCell id="hnphaV9fLyNqbtY4DGl_-24" value="&lt;span style=&quot;color: rgb(0, 0, 0); font-family: Helvetica; font-size: 12px; font-style: normal; font-variant-ligatures: normal; font-variant-caps: normal; font-weight: 400; letter-spacing: normal; orphans: 2; text-align: center; text-indent: 0px; text-transform: none; widows: 2; word-spacing: 0px; -webkit-text-stroke-width: 0px; white-space: normal; background-color: rgb(251, 251, 251); text-decoration-thickness: initial; text-decoration-style: initial; text-decoration-color: initial; display: inline !important; float: none;&quot;&gt;&amp;lt;&amp;lt;Include&amp;gt;&amp;gt;&lt;/span&gt;" style="text;whiteSpace=wrap;html=1;" vertex="1" parent="hnphaV9fLyNqbtY4DGl_-1">
          <mxGeometry x="440" y="-15" width="70" height="30" as="geometry" />
        </mxCell>
        <mxCell id="hnphaV9fLyNqbtY4DGl_-27" style="edgeStyle=orthogonalEdgeStyle;rounded=0;orthogonalLoop=1;jettySize=auto;html=1;exitX=0.5;exitY=0.5;exitDx=0;exitDy=0;exitPerimeter=0;entryX=0.5;entryY=0.5;entryDx=0;entryDy=0;entryPerimeter=0;" edge="1" parent="hnphaV9fLyNqbtY4DGl_-1" source="hnphaV9fLyNqbtY4DGl_-19" target="hnphaV9fLyNqbtY4DGl_-3">
          <mxGeometry relative="1" as="geometry">
            <Array as="points">
              <mxPoint x="80" y="90" />
              <mxPoint x="80" y="160" />
            </Array>
          </mxGeometry>
        </mxCell>
        <mxCell id="TaVWSZ8UGfgvqQQc6h5i-0" value="Inserire descrizione" style="ellipse;whiteSpace=wrap;html=1;" vertex="1" parent="hnphaV9fLyNqbtY4DGl_-1">
          <mxGeometry x="520" y="-40" width="120" height="80" as="geometry" />
        </mxCell>
        <mxCell id="MBtz7CTxWzo5z4R5YLK3-0" value="Inserire foto" style="ellipse;whiteSpace=wrap;html=1;" vertex="1" parent="hnphaV9fLyNqbtY4DGl_-1">
          <mxGeometry x="520" y="280" width="120" height="80" as="geometry" />
        </mxCell>
        <mxCell id="MBtz7CTxWzo5z4R5YLK3-1" value="Inserire posizione" style="ellipse;whiteSpace=wrap;html=1;" vertex="1" parent="hnphaV9fLyNqbtY4DGl_-1">
          <mxGeometry x="520" y="440" width="120" height="80" as="geometry" />
        </mxCell>
        <mxCell id="MBtz7CTxWzo5z4R5YLK3-8" value="&lt;span style=&quot;color: rgb(0, 0, 0); font-family: Helvetica; font-size: 12px; font-style: normal; font-variant-ligatures: normal; font-variant-caps: normal; font-weight: 400; letter-spacing: normal; orphans: 2; text-align: center; text-indent: 0px; text-transform: none; widows: 2; word-spacing: 0px; -webkit-text-stroke-width: 0px; white-space: normal; background-color: rgb(251, 251, 251); text-decoration-thickness: initial; text-decoration-style: initial; text-decoration-color: initial; display: inline !important; float: none;&quot;&gt;&amp;lt;&amp;lt;Include&amp;gt;&amp;gt;&lt;/span&gt;" style="text;whiteSpace=wrap;html=1;" vertex="1" parent="hnphaV9fLyNqbtY4DGl_-1">
          <mxGeometry x="440" y="-175" width="70" height="30" as="geometry" />
        </mxCell>
        <mxCell id="MBtz7CTxWzo5z4R5YLK3-16" value="" style="endArrow=none;html=1;rounded=0;entryX=0.5;entryY=1;entryDx=0;entryDy=0;" edge="1" parent="hnphaV9fLyNqbtY4DGl_-1" target="hnphaV9fLyNqbtY4DGl_-14">
          <mxGeometry width="50" height="50" relative="1" as="geometry">
            <mxPoint x="140" y="210" as="sourcePoint" />
            <mxPoint x="880" y="270" as="targetPoint" />
            <Array as="points">
              <mxPoint x="140" y="560" />
              <mxPoint x="860" y="560" />
            </Array>
          </mxGeometry>
        </mxCell>
        <mxCell id="MBtz7CTxWzo5z4R5YLK3-17" value="Elimina segnalazione" style="ellipse;whiteSpace=wrap;html=1;" vertex="1" parent="hnphaV9fLyNqbtY4DGl_-1">
          <mxGeometry x="80" y="-120" width="120" height="80" as="geometry" />
        </mxCell>
        <mxCell id="MBtz7CTxWzo5z4R5YLK3-18" value="" style="endArrow=none;html=1;rounded=0;entryX=0.5;entryY=1;entryDx=0;entryDy=0;exitX=0.5;exitY=0;exitDx=0;exitDy=0;exitPerimeter=0;" edge="1" parent="hnphaV9fLyNqbtY4DGl_-1" source="hnphaV9fLyNqbtY4DGl_-3" target="MBtz7CTxWzo5z4R5YLK3-17">
          <mxGeometry width="50" height="50" relative="1" as="geometry">
            <mxPoint x="410" y="20" as="sourcePoint" />
            <mxPoint x="460" y="-30" as="targetPoint" />
          </mxGeometry>
        </mxCell>
        <mxCell id="MBtz7CTxWzo5z4R5YLK3-20" value="" style="endArrow=none;html=1;rounded=0;entryX=0;entryY=0.5;entryDx=0;entryDy=0;exitX=1;exitY=0.5;exitDx=0;exitDy=0;" edge="1" parent="hnphaV9fLyNqbtY4DGl_-1" source="MBtz7CTxWzo5z4R5YLK3-1" target="hnphaV9fLyNqbtY4DGl_-14">
          <mxGeometry width="50" height="50" relative="1" as="geometry">
            <mxPoint x="530" y="300" as="sourcePoint" />
            <mxPoint x="580" y="250" as="targetPoint" />
            <Array as="points">
              <mxPoint x="720" y="480" />
              <mxPoint x="720" y="160" />
            </Array>
          </mxGeometry>
        </mxCell>
        <mxCell id="MBtz7CTxWzo5z4R5YLK3-21" value="" style="endArrow=none;html=1;rounded=0;entryX=0;entryY=0.5;entryDx=0;entryDy=0;exitX=1;exitY=0.5;exitDx=0;exitDy=0;" edge="1" parent="hnphaV9fLyNqbtY4DGl_-1" source="MBtz7CTxWzo5z4R5YLK3-0" target="hnphaV9fLyNqbtY4DGl_-14">
          <mxGeometry width="50" height="50" relative="1" as="geometry">
            <mxPoint x="530" y="300" as="sourcePoint" />
            <mxPoint x="580" y="250" as="targetPoint" />
            <Array as="points">
              <mxPoint x="720" y="320" />
              <mxPoint x="720" y="160" />
            </Array>
          </mxGeometry>
        </mxCell>
        <mxCell id="MBtz7CTxWzo5z4R5YLK3-22" value="" style="endArrow=none;html=1;rounded=0;entryX=0;entryY=0.5;entryDx=0;entryDy=0;exitX=1;exitY=0.5;exitDx=0;exitDy=0;" edge="1" parent="hnphaV9fLyNqbtY4DGl_-1" source="hnphaV9fLyNqbtY4DGl_-8" target="hnphaV9fLyNqbtY4DGl_-14">
          <mxGeometry width="50" height="50" relative="1" as="geometry">
            <mxPoint x="530" y="300" as="sourcePoint" />
            <mxPoint x="580" y="250" as="targetPoint" />
          </mxGeometry>
        </mxCell>
        <mxCell id="MBtz7CTxWzo5z4R5YLK3-23" value="" style="endArrow=none;html=1;rounded=0;entryX=1;entryY=0.5;entryDx=0;entryDy=0;exitX=0;exitY=0.5;exitDx=0;exitDy=0;" edge="1" parent="hnphaV9fLyNqbtY4DGl_-1" source="hnphaV9fLyNqbtY4DGl_-14" target="TaVWSZ8UGfgvqQQc6h5i-0">
          <mxGeometry width="50" height="50" relative="1" as="geometry">
            <mxPoint x="530" y="170" as="sourcePoint" />
            <mxPoint x="580" y="120" as="targetPoint" />
            <Array as="points">
              <mxPoint x="720" y="160" />
              <mxPoint x="720" />
            </Array>
          </mxGeometry>
        </mxCell>
        <mxCell id="MBtz7CTxWzo5z4R5YLK3-24" value="" style="endArrow=none;html=1;rounded=0;exitX=0;exitY=0.5;exitDx=0;exitDy=0;entryX=1;entryY=0.5;entryDx=0;entryDy=0;" edge="1" parent="hnphaV9fLyNqbtY4DGl_-1" source="hnphaV9fLyNqbtY4DGl_-14" target="hnphaV9fLyNqbtY4DGl_-9">
          <mxGeometry width="50" height="50" relative="1" as="geometry">
            <mxPoint x="530" y="-80" as="sourcePoint" />
            <mxPoint x="580" y="-130" as="targetPoint" />
            <Array as="points">
              <mxPoint x="720" y="160" />
              <mxPoint x="720" y="-160" />
            </Array>
          </mxGeometry>
        </mxCell>
        <mxCell id="MBtz7CTxWzo5z4R5YLK3-25" value="" style="endArrow=classic;html=1;rounded=0;exitX=0;exitY=0.5;exitDx=0;exitDy=0;" edge="1" parent="hnphaV9fLyNqbtY4DGl_-1" source="hnphaV9fLyNqbtY4DGl_-14">
          <mxGeometry width="50" height="50" relative="1" as="geometry">
            <mxPoint x="530" y="50" as="sourcePoint" />
            <mxPoint x="720" y="160" as="targetPoint" />
          </mxGeometry>
        </mxCell>
        <mxCell id="MBtz7CTxWzo5z4R5YLK3-26" value="&amp;lt;&amp;lt;Extend&amp;gt;&amp;gt;" style="edgeLabel;html=1;align=center;verticalAlign=middle;resizable=0;points=[];" vertex="1" connectable="0" parent="MBtz7CTxWzo5z4R5YLK3-25">
          <mxGeometry x="-0.1375" y="-1" relative="1" as="geometry">
            <mxPoint x="1" y="1" as="offset" />
          </mxGeometry>
        </mxCell>
      </root>
    </mxGraphModel>
  </diagram>
</mxfile>
